G04 #@! TF.GenerationSoftware,KiCad,Pcbnew,(5.1.4)-1*
G04 #@! TF.CreationDate,2019-11-05T01:24:31-05:00*
G04 #@! TF.ProjectId,keyboard,6b657962-6f61-4726-942e-6b696361645f,rev?*
G04 #@! TF.SameCoordinates,Original*
G04 #@! TF.FileFunction,Paste,Bot*
G04 #@! TF.FilePolarity,Positive*
%FSLAX46Y46*%
G04 Gerber Fmt 4.6, Leading zero omitted, Abs format (unit mm)*
G04 Created by KiCad (PCBNEW (5.1.4)-1) date 2019-11-05 01:24:31*
%MOMM*%
%LPD*%
G04 APERTURE LIST*
%ADD10R,1.200000X1.200000*%
G04 APERTURE END LIST*
D10*
X9000000Y-1575000D03*
X9000000Y1575000D03*
X48000000Y1575000D03*
X48000000Y-1575000D03*
X67500000Y-1575000D03*
X67500000Y1575000D03*
X87000000Y1575000D03*
X87000000Y-1575000D03*
X106500000Y1575000D03*
X106500000Y-1575000D03*
X136000000Y-1575000D03*
X136000000Y1575000D03*
X155500000Y1575000D03*
X155500000Y-1575000D03*
X175000000Y-1575000D03*
X175000000Y1575000D03*
X194500000Y-1575000D03*
X194500000Y1575000D03*
X223500000Y1575000D03*
X223500000Y-1575000D03*
X243000000Y1575000D03*
X243000000Y-1575000D03*
X262500000Y-1575000D03*
X262500000Y1575000D03*
X282000000Y-1575000D03*
X282000000Y1575000D03*
X306500000Y1575000D03*
X306500000Y-1575000D03*
X326000000Y-1575000D03*
X326000000Y1575000D03*
X345500000Y1575000D03*
X345500000Y-1575000D03*
X9000000Y-27425000D03*
X9000000Y-30575000D03*
X28500000Y-26925000D03*
X28500000Y-30075000D03*
X48000000Y-30075000D03*
X48000000Y-26925000D03*
X67500000Y-26925000D03*
X67500000Y-30075000D03*
X87000000Y-26925000D03*
X87000000Y-30075000D03*
X106500000Y-30075000D03*
X106500000Y-26925000D03*
X126000000Y-30575000D03*
X126000000Y-27425000D03*
X145500000Y-30075000D03*
X145500000Y-26925000D03*
X165000000Y-26925000D03*
X165000000Y-30075000D03*
X184500000Y-30075000D03*
X184500000Y-26925000D03*
X204000000Y-26925000D03*
X204000000Y-30075000D03*
X223500000Y-30075000D03*
X223500000Y-26925000D03*
X243000000Y-30075000D03*
X243000000Y-26925000D03*
X272000000Y-26925000D03*
X272000000Y-30075000D03*
X14000000Y-49075000D03*
X14000000Y-45925000D03*
X38000000Y-45925000D03*
X38000000Y-49075000D03*
X58000000Y-45925000D03*
X58000000Y-49075000D03*
X77000000Y-49075000D03*
X77000000Y-45925000D03*
X96500000Y-49075000D03*
X96500000Y-45925000D03*
X116000000Y-49075000D03*
X116000000Y-45925000D03*
X135500000Y-45925000D03*
X135500000Y-49075000D03*
X155000000Y-49075000D03*
X155000000Y-45925000D03*
X174500000Y-45925000D03*
X174500000Y-49075000D03*
X194000000Y-49075000D03*
X194000000Y-45925000D03*
X213500000Y-49075000D03*
X213500000Y-45925000D03*
X233000000Y-49075000D03*
X233000000Y-45925000D03*
X252500000Y-45925000D03*
X252500000Y-49075000D03*
X277000000Y-45925000D03*
X277000000Y-49075000D03*
X16500000Y-68075000D03*
X16500000Y-64925000D03*
X43000000Y-64925000D03*
X43000000Y-68075000D03*
X62500000Y-68075000D03*
X62500000Y-64925000D03*
X82000000Y-64925000D03*
X82000000Y-68075000D03*
X101500000Y-68075000D03*
X101500000Y-64925000D03*
X121000000Y-64925000D03*
X121000000Y-68075000D03*
X140500000Y-68075000D03*
X140500000Y-64925000D03*
X160000000Y-68075000D03*
X160000000Y-64925000D03*
X179500000Y-64925000D03*
X179500000Y-68075000D03*
X199000000Y-64925000D03*
X199000000Y-68075000D03*
X218500000Y-64925000D03*
X218500000Y-68075000D03*
X238000000Y-68075000D03*
X238000000Y-64925000D03*
X21000000Y-87075000D03*
X21000000Y-83925000D03*
X53000000Y-83925000D03*
X53000000Y-87075000D03*
X72500000Y-83925000D03*
X72500000Y-87075000D03*
X92000000Y-87075000D03*
X92000000Y-83925000D03*
X111500000Y-83925000D03*
X111500000Y-87075000D03*
X131000000Y-87075000D03*
X131000000Y-83925000D03*
X150500000Y-83925000D03*
X150500000Y-87075000D03*
X170000000Y-83925000D03*
X170000000Y-87075000D03*
X189500000Y-87075000D03*
X189500000Y-83925000D03*
X208500000Y-83925000D03*
X208500000Y-87075000D03*
X228000000Y-87075000D03*
X228000000Y-83925000D03*
X11500000Y-106075000D03*
X11500000Y-102925000D03*
X36000000Y-102925000D03*
X36000000Y-106075000D03*
X60000000Y-106075000D03*
X60000000Y-102925000D03*
X133000000Y-106075000D03*
X133000000Y-102925000D03*
X206500000Y-102925000D03*
X206500000Y-106075000D03*
X230500000Y-102925000D03*
X230500000Y-106075000D03*
X255000000Y-102925000D03*
X255000000Y-106075000D03*
X279500000Y-106075000D03*
X279500000Y-102925000D03*
X306000000Y-26925000D03*
X306000000Y-30075000D03*
X325500000Y-30075000D03*
X325500000Y-26925000D03*
X345000000Y-30075000D03*
X345000000Y-26925000D03*
X306000000Y-49075000D03*
X306000000Y-45925000D03*
X325500000Y-49075000D03*
X325500000Y-45925000D03*
X345000000Y-49075000D03*
X345000000Y-45925000D03*
X306000000Y-106075000D03*
X306000000Y-102925000D03*
X325500000Y-106075000D03*
X325500000Y-102925000D03*
X345000000Y-102925000D03*
X345000000Y-106075000D03*
X369500000Y-26925000D03*
X369500000Y-30075000D03*
X389000000Y-30075000D03*
X389000000Y-26925000D03*
X408500000Y-26925000D03*
X408500000Y-30075000D03*
X428000000Y-26925000D03*
X428000000Y-30075000D03*
X369500000Y-45925000D03*
X369500000Y-49075000D03*
X389000000Y-49075000D03*
X389000000Y-45925000D03*
X408500000Y-45925000D03*
X408500000Y-49075000D03*
X416425000Y-66500000D03*
X419575000Y-66500000D03*
X408500000Y-64925000D03*
X408500000Y-68075000D03*
X369500000Y-87075000D03*
X369500000Y-83925000D03*
X389000000Y-87075000D03*
X389000000Y-83925000D03*
X408500000Y-83925000D03*
X408500000Y-87075000D03*
X419575000Y-104500000D03*
X416425000Y-104500000D03*
X379000000Y-102925000D03*
X379000000Y-106075000D03*
X408500000Y-106075000D03*
X408500000Y-102925000D03*
M02*
