M48
; DRILL file {KiCad (5.1.4)-1} date 11/5/2019 1:24:33 AM
; FORMAT={-:-/ absolute / inch / decimal}
; #@! TF.CreationDate,2019-11-05T01:24:33-05:00
; #@! TF.GenerationSoftware,Kicad,Pcbnew,(5.1.4)-1
; #@! TF.FileFunction,Plated,1,2,PTH
FMAT,2
INCH
T1C0.0157
T2C0.0197
T3C0.0276
T4C0.0315
T5C0.0433
T6C0.0591
%
G90
G05
T1
X-0.4312Y-2.2159
X-0.3797Y-3.661
X-0.2695Y-0.5337
X-0.2608Y-2.169
X-0.2608Y-0.5941
X-0.2487Y-3.661
X-0.2379Y-2.2298
X0.044Y-4.3417
X0.0982Y-0.1538
X0.1256Y-4.2209
X0.3488Y-2.7633
X0.3763Y-2.5244
X0.458Y-1.5155
X0.4736Y-3.4737
X0.5106Y-1.2477
X0.5332Y-2.3997
X0.5499Y-1.6128
X0.6293Y-1.328
X0.9696Y-1.9902
X1.1176Y-4.2967
X1.1199Y-4.2533
X1.2831Y-3.9557
X1.399Y-2.7633
X1.408Y-2.5367
X1.421Y-1.7236
X1.4293Y-3.7606
X1.4304Y-2.6851
X1.446Y-4.3882
X1.4515Y-2.8424
X1.5678Y-4.2967
X1.6041Y-2.3806
X1.6397Y-2.6851
X1.7059Y-0.1817
X1.7135Y-3.6069
X1.7375Y-0.8598
X1.7399Y-1.3629
X1.7494Y-2.222
X1.7621Y-3.9651
X1.7803Y-1.0004
X1.7842Y-3.5517
X1.7944Y-2.0593
X1.8152Y-0.9381
X1.9308Y-3.1258
X1.9735Y-2.0133
X1.9761Y-3.4692
X2.017Y-2.2044
X2.0363Y-0.8313
X2.0519Y-2.9999
X2.0525Y-3.6344
X2.0579Y-0.0803
X2.0621Y-2.2915
X2.0631Y-1.7908
X2.0685Y-0.6097
X2.0938Y-2.2195
X2.0992Y-4.2968
X2.215Y-1.8367
X2.2176Y-3.3021
X2.2479Y-1.5161
X2.2715Y-1.6522
X2.2798Y-0.2125
X2.281Y-4.0005
X2.3478Y-2.2713
X2.3481Y-1.3866
X2.3698Y-4.3568
X2.376Y-2.7733
X2.4143Y-1.2916
X2.4627Y-1.2077
X2.4713Y-0.4684
X2.5057Y-2.062
X2.5247Y0.1672
X2.5444Y-2.2415
X2.5735Y-3.663
X2.5737Y-3.5527
X2.5856Y-1.158
X2.5899Y-2.0133
X2.6257Y-0.3551
X2.6298Y-0.31
X2.7405Y-2.7941
X2.7422Y-1.0691
X2.7437Y-1.1275
X2.7515Y-2.0567
X2.7839Y-2.3823
X2.8155Y-2.8823
X2.9406Y-2.7667
X2.9712Y-1.1962
X2.9751Y-1.3199
X2.9824Y-2.7368
X3.0139Y-2.8067
X3.0183Y-4.3921
X3.0622Y-1.5639
X3.0978Y-2.8507
X3.1023Y-2.3548
X3.1244Y-1.2633
X3.1338Y-2.9515
X3.1408Y-3.5629
X3.1498Y-1.5727
X3.1696Y-0.2698
X3.1832Y-4.3928
X3.2064Y-2.8784
X3.2256Y-1.6083
X3.2273Y-2.3102
X3.2397Y-0.8496
X3.2575Y-2.134
X3.2722Y-2.8067
X3.3182Y-1.5146
X3.326Y-0.2296
X3.3289Y-3.4655
X3.3362Y-3.5517
X3.3377Y-2.0133
X3.3396Y-2.0611
X3.3492Y-2.8773
X3.352Y-1.1699
X3.3573Y-2.2374
X3.3963Y-2.2552
X3.4515Y-0.2293
X3.4769Y-1.1692
X3.4849Y-3.5765
X3.4919Y-3.5194
X3.5173Y-2.3759
X3.537Y-2.3149
X3.5446Y-3.2095
X3.5823Y-3.7878
X3.5997Y-1.2707
X3.6345Y-3.721
X3.6703Y-1.3734
X3.6777Y-0.1183
X3.6852Y-3.5192
X3.6948Y-2.7304
X3.6957Y-3.4029
X3.7164Y-2.0133
X3.7196Y-2.8243
X3.741Y-1.2716
X3.7504Y-0.1491
X3.7584Y-3.4657
X3.8163Y-0.0907
X3.8188Y-3.796
X3.8346Y-4.4217
X3.8991Y-0.1293
X3.9039Y-1.2716
X3.969Y-1.3338
X4.0285Y-2.6323
X4.0522Y-2.7887
X4.0996Y-3.5092
X4.1042Y-4.3783
X4.1076Y-4.2501
X4.1144Y-2.0382
X4.1158Y-3.5708
X4.1724Y-1.6478
X4.2185Y-4.2353
X4.2384Y-2.8236
X4.2406Y-1.1766
X4.2639Y-0.8911
X4.2779Y-2.0348
X4.3004Y-1.1181
X4.3221Y-1.2964
X4.4202Y-1.3556
X4.4688Y-2.7517
X4.5207Y-2.0567
X4.5621Y-1.6519
X4.5706Y-2.8652
X4.6121Y-2.3688
X4.6208Y-2.8212
X4.6553Y-3.5691
X4.6709Y-2.4043
X4.6776Y-2.763
X4.6854Y-3.4484
X4.6984Y-1.2607
X4.702Y-1.0599
X4.7023Y-2.1108
X4.7506Y-2.1977
X4.7835Y-3.1346
X4.7847Y-3.4779
X4.7856Y-2.1108
X4.7945Y-2.6329
X4.825Y-2.1193
X4.8357Y-0.1868
X4.8656Y-2.0042
X4.8885Y-1.1876
X4.8892Y-2.8353
X4.8986Y-3.5691
X4.9013Y-0.1817
X4.9109Y-2.3578
X4.9276Y-2.2828
X5.0487Y-0.1383
X5.0689Y-1.3621
X5.0696Y-2.7884
X5.0733Y-3.175
X5.0758Y-0.8305
X5.076Y-2.0133
X5.0927Y-2.0567
X5.122Y-2.1586
X5.1625Y-0.2892
X5.1742Y-2.1471
X5.2122Y-2.0684
X5.222Y-1.4088
X5.2344Y-2.7442
X5.2408Y-2.8017
X5.2589Y-1.2682
X5.268Y-2.5401
X5.273Y-2.5877
X5.3295Y-1.6531
X5.3582Y-4.3749
X5.3604Y-1.3372
X5.3945Y-1.5477
X5.4129Y-2.6724
X5.4353Y-0.4856
X5.4379Y-0.1497
X5.4468Y-1.3734
X5.461Y-2.3578
X5.469Y-0.2157
X5.4765Y-2.7312
X5.4862Y-1.3734
X5.5145Y-1.5191
X5.5213Y-0.1782
X5.5469Y-1.243
X5.5565Y-1.4088
X5.58Y-2.6726
X5.583Y-0.2976
X5.5997Y-1.9262
X5.633Y-1.318
X5.6688Y-1.3856
X5.7392Y-1.6831
X5.7906Y-0.7958
X5.8066Y-2.0952
X5.8094Y-2.055
X5.8173Y-0.3413
X5.8245Y-1.515
X5.8248Y-2.8341
X5.8359Y-2.7558
X5.8727Y-0.8595
X5.935Y-2.0133
X5.9556Y-3.3809
X5.9753Y-1.7709
X6.0235Y-2.1439
X6.0263Y-2.7874
X6.0452Y-1.4577
X6.0863Y-2.3586
X6.1287Y-2.7583
X6.1363Y-2.3232
X6.1514Y-1.3445
X6.1975Y-1.3437
X6.1989Y-1.2594
X6.2248Y-3.5083
X6.299Y-2.0254
X6.3002Y-1.2898
X6.3205Y-2.8645
X6.3354Y-2.1024
X6.3563Y-1.2933
X6.4204Y-0.93
X6.4524Y-0.289
X6.4524Y-2.1024
X6.4744Y-1.6896
X6.499Y-0.0917
X6.5741Y-2.0575
X6.5765Y-2.3407
X6.5799Y-0.1374
X6.5804Y-0.3176
X6.6023Y-0.1748
X6.6195Y-0.8371
X6.6899Y-0.2034
X6.7119Y0.0751
X6.7355Y-3.5673
X6.7464Y-0.426
X6.7686Y-2.7491
X6.7708Y-0.2575
X6.7722Y-1.4959
X6.8068Y-0.1185
X6.8162Y-2.9495
X6.8223Y-0.4547
X6.8823Y-0.5147
X6.8856Y-0.8449
X6.9037Y-0.3773
X6.937Y-0.0625
X6.9587Y-1.3093
X6.9788Y-1.2633
X7.0055Y-0.2464
X7.0701Y-3.4772
X7.0777Y-1.5172
X7.0877Y-2.0583
X7.0945Y-1.3897
X7.1139Y-0.2298
X7.1156Y-2.6728
X7.1385Y-3.0227
X7.1891Y-2.0644
X7.1906Y-1.9757
X7.2069Y-2.2049
X7.2228Y-2.8386
X7.252Y-1.5526
X7.256Y-2.7583
X7.2632Y-2.7983
X7.281Y-1.5838
X7.3235Y-3.1617
X7.3489Y-0.1944
X7.3659Y-3.0932
X7.3698Y-2.0702
X7.3904Y-0.8305
X7.4252Y-1.9927
X7.4299Y-0.8139
X7.4383Y-1.266
X7.5014Y-0.1383
X7.5063Y-3.7456
X7.5159Y-3.4754
X7.5438Y-4.286
X7.5466Y-3.6632
X7.5482Y-2.2391
X7.5544Y-3.8831
X7.5797Y-4.1801
X7.6232Y-1.4455
X7.6615Y-1.6152
X7.6661Y-2.7583
X7.669Y-4.2154
X7.7101Y-1.5035
X7.7164Y-2.2301
X7.7209Y-0.1741
X7.7648Y-2.426
X7.7655Y-0.1615
X7.8019Y-2.8187
X7.8301Y-3.2556
X7.8393Y-3.4772
X7.8483Y-0.7992
X7.853Y-3.6327
X7.854Y-1.9822
X7.8562Y-3.0517
X7.8593Y-4.3348
X7.8664Y-2.3561
X7.8862Y-3.0227
X7.9128Y-0.1848
X7.9133Y-0.1454
X7.9186Y-3.5484
X7.9638Y-0.195
X8.0157Y-3.5782
X8.0415Y-2.1999
X8.0999Y-3.1851
X8.2459Y-2.9986
X8.291Y-4.2153
X8.3051Y-3.8396
X8.3127Y-0.1937
X8.3283Y-3.7446
X8.3636Y-2.2298
X8.414Y-2.7583
X8.4421Y-3.7974
X8.4736Y-0.7487
X8.4941Y-1.2983
X8.4995Y-0.138
X8.5241Y-1.8081
X8.5429Y-3.721
X8.5506Y-0.1741
X8.6412Y-2.8604
X8.6747Y-1.9122
X8.6795Y-2.816
X8.6809Y-3.5831
X8.6969Y-2.9364
X8.7089Y-1.5207
X8.7105Y-1.6025
X8.7189Y-2.832
X8.7401Y-4.4297
X8.7845Y-4.2967
X8.7989Y-1.5739
X8.8118Y-3.1825
X8.8378Y-2.3007
X8.8729Y-2.8966
X8.9377Y-4.2555
X8.9635Y-1.3332
X8.9663Y-1.2633
X9.006Y0.3565
X9.0409Y-1.5926
X9.0753Y-2.7486
X9.0791Y-0.1432
X9.0921Y-4.3987
X9.1189Y-2.7946
X9.1373Y-1.5025
X9.1708Y-0.9451
X9.1736Y-4.3172
X9.181Y-4.2268
X9.2116Y-2.1128
X9.2218Y-4.3458
X9.2634Y-2.0813
X9.2828Y-2.6548
X9.3764Y-0.1383
X9.3769Y-1.9843
X9.4004Y-1.5921
X9.4055Y-2.171
X9.4246Y-3.5422
X9.4265Y-0.2167
X9.4819Y-3.7389
X9.4901Y-0.1725
X9.4903Y-3.6348
X9.5184Y-2.0952
X9.5207Y-3.7206
X9.5899Y-4.2631
X9.5921Y-3.6058
X9.6031Y-3.7455
X9.6209Y-2.4889
X9.6211Y-3.1062
X9.6491Y-3.6761
X9.6706Y-2.9955
X9.6706Y-3.5885
X9.7556Y-4.2939
X9.771Y-0.1702
X9.8531Y-1.678
X9.8915Y-2.7317
X9.9761Y-3.5431
X9.9903Y-0.4538
X9.997Y-3.6783
X10.0157Y-1.3332
X10.0271Y-0.4059
X10.0303Y-0.1826
X10.0406Y-3.473
X10.0901Y-3.7741
X10.0928Y-3.696
X10.1712Y-2.8129
X10.2042Y-0.138
X10.2221Y-1.2633
X10.2222Y-2.2149
X10.2418Y-2.0567
X10.2566Y-1.3002
X10.2798Y-2.2483
X10.2984Y-1.4169
X10.357Y-0.2267
X10.371Y-1.3443
X10.5069Y-4.3232
X10.5168Y-4.5289
X10.562Y-2.5529
X10.6987Y-4.2856
X10.7055Y-0.804
X10.77Y-1.7165
X10.8295Y-0.2347
X10.8412Y-0.1774
X10.842Y-1.6832
X10.958Y-3.5197
X10.9584Y-3.8836
X10.9858Y-0.138
X11.0047Y-4.4239
X11.0815Y-4.3861
X11.1393Y-2.6865
X11.3204Y-4.3067
X11.3349Y-4.1976
X11.3845Y-4.2066
X11.4143Y-0.5403
X11.5203Y-1.5646
X11.6111Y-2.2298
X11.6347Y-1.4862
X11.6788Y-2.0861
X11.7215Y-1.7396
X11.7535Y-1.2495
X11.7538Y-4.313
X11.7586Y-0.1383
X11.7599Y-0.1835
X11.7967Y-0.4187
X11.8775Y-0.4473
X11.9105Y-0.85
X11.9229Y-1.7372
X11.9795Y-1.6736
X12.0489Y-0.5049
X12.114Y-1.7683
X12.1467Y-1.0714
X12.1629Y-0.7736
X12.2038Y-1.2801
X12.3419Y-1.25
X12.426Y-1.3394
X12.4845Y-4.3833
X12.5238Y-1.3017
X12.5242Y-4.3067
X12.5491Y-1.9571
X12.5572Y-2.0546
X12.5625Y-0.1817
X12.5848Y-4.3515
X12.5879Y-4.2344
X12.5894Y-3.5167
X12.5895Y-3.5573
X12.6023Y-1.3625
X12.6224Y-3.6609
X12.6377Y-4.4611
X12.6675Y-1.2334
X12.7617Y-3.7455
X12.7677Y-1.1766
X12.8583Y-2.2839
X12.8663Y-0.013
X12.8978Y-0.5592
X12.9348Y-2.189
X12.9586Y0.1383
X12.9646Y-1.7184
X13.0142Y-0.1373
X13.0843Y-0.0473
X13.0846Y0.4038
X13.1108Y0.3122
X13.1778Y0.162
X13.1953Y-0.2203
X13.289Y-4.3067
X13.2891Y-1.2633
X13.2894Y-1.3067
X13.2904Y-2.0133
X13.2991Y-1.9542
X13.3232Y-1.045
X13.3238Y-0.0918
X13.3306Y-3.4824
X13.35Y-0.3644
X13.3588Y-4.2609
X13.3614Y-0.4759
X13.3698Y-0.0468
X13.3972Y-0.1766
X13.423Y-0.0753
X13.423Y-0.9542
X13.4234Y-1.6736
X13.4307Y-1.2796
X13.4518Y-0.58
X13.5038Y-0.8697
X13.5045Y-0.1801
X13.729Y-4.3442
X13.736Y-1.761
X13.7914Y-3.946
X13.856Y-0.4187
X13.8569Y-3.3406
X13.8896Y-4.0031
X13.9148Y-0.1691
X13.9554Y-0.3983
X13.9647Y-3.0044
X13.9664Y-0.2678
X13.9949Y-0.4932
X14.0219Y-1.3095
X14.0664Y-1.3382
X14.0682Y-4.2193
X14.0852Y-0.6097
X14.0882Y-0.0664
X14.1001Y-1.2633
X14.1245Y-0.2417
X14.1653Y-1.9782
X14.1975Y-2.245
X14.2337Y-0.728
X14.2497Y-1.2633
X14.25Y-0.7687
X14.2738Y-0.6928
X14.2785Y-0.1462
X14.2906Y0.0814
X14.2916Y-2.7315
X14.3068Y-0.2742
X14.3117Y0.2476
X14.3169Y-0.804
X14.3171Y-0.1158
X14.331Y-0.0093
X14.3804Y-0.9856
X14.4049Y-0.0801
X14.4535Y-4.4897
X14.4587Y0.1185
X14.5087Y-0.069
X14.5333Y0.2677
X14.5409Y-1.3332
X14.562Y-0.0692
X14.5805Y0.2662
X14.5932Y-1.5982
X14.595Y-0.2215
X14.6026Y-2.0149
X14.612Y-2.5585
X14.6153Y-3.4976
X14.616Y-3.6211
X14.6187Y-2.161
X14.6318Y0.2689
X14.6483Y-2.0567
X14.6752Y-0.0506
X14.7059Y-2.214
X14.7232Y-0.236
X14.7375Y-3.7985
X14.7491Y-2.7379
X14.7987Y0.5252
X14.8056Y-2.7583
X14.8061Y-3.073
X14.8298Y-2.3335
X14.8332Y-2.8105
X14.8389Y-0.0787
X14.8664Y-1.2633
X14.8725Y-4.1725
X14.8769Y-0.097
X14.8806Y-4.221
X14.8827Y-3.7985
X14.8867Y-3.754
X14.8939Y0.3885
X14.9296Y-3.4657
X14.9469Y-2.8349
X14.9967Y-2.347
X15.0439Y-3.3933
X15.0451Y-2.3117
X15.0502Y-3.9754
X15.078Y-3.4867
X15.0837Y-3.2746
X15.0863Y-2.0592
X15.0904Y-0.2246
X15.1283Y-2.347
X15.1414Y-1.7791
X15.1559Y-2.8337
X15.1759Y-2.7117
X15.2091Y-3.5782
X15.2123Y-0.1257
X15.2552Y-0.5278
X15.2651Y-2.3909
X15.2651Y-3.0484
X15.2765Y-2.3151
X15.3109Y-2.3633
X15.3466Y-3.3799
X15.35Y-1.475
X15.3506Y-2.8666
X15.3621Y-3.1337
X15.3628Y0.164
X15.435Y-1.195
X15.4759Y0.1926
X15.6063Y-2.8337
X15.6263Y-1.2702
X15.6267Y-2.0646
X15.6357Y-2.0136
X15.6611Y-3.0529
X15.6803Y-2.1006
X15.7062Y-3.0196
X15.7081Y-1.6266
X15.7567Y-2.0951
X15.784Y-2.7583
X15.7843Y-4.3017
X15.7927Y-0.0947
X15.8121Y-1.9971
X15.8318Y-0.4314
X15.8388Y-1.3134
X15.8575Y-3.5945
X15.9559Y-2.7313
X16.0307Y0.0197
X16.1184Y-0.2989
X16.1307Y-1.2018
X16.1409Y-1.9685
X16.1767Y-0.7736
X16.1836Y-2.541
X16.1924Y-0.0699
X16.1967Y-2.4038
X16.2049Y-0.2465
X16.229Y0.1406
X16.2844Y-2.316
X16.3015Y-1.3179
X16.3159Y-0.0405
X16.352Y-3.7926
X16.3547Y-2.2052
X16.3691Y-3.2126
X16.6318Y-1.759
X16.7199Y-3.0415
X16.72Y-1.5551
X16.7208Y0.0456
X16.814Y-1.4464
X16.0118Y0.2476
X16.0276Y0.2752
X16.0591Y0.2752
X16.0748Y0.2476
X16.0906Y0.2752
X16.1063Y0.2476
X16.1378Y0.2476
X16.1535Y0.2752
X16.1693Y0.2476
X16.185Y0.2752
X16.2165Y0.2752
X16.2323Y0.2476
T3
X16.3031Y-2.6181
X16.6102Y-2.6181
X0.4528Y-3.9606
X0.4528Y-4.2677
X7.6378Y-1.7165
X7.6378Y-2.0236
X15.315Y-1.7165
X15.315Y-2.0236
X8.4055Y-1.7165
X8.4055Y-2.0236
X12.815Y-3.2126
X12.815Y-3.5197
X15.315Y-2.4646
X15.315Y-2.7717
X4.5669Y-1.7165
X4.5669Y-2.0236
X14.5472Y-1.7165
X14.5472Y-2.0236
X4.1929Y-0.9685
X4.1929Y-1.2756
X8.6024Y-2.4646
X8.6024Y-2.7717
X13.5827Y-1.7165
X13.5827Y-2.0236
X6.8898Y0.1535
X6.8898Y-0.1535
X6.2992Y-2.4646
X6.2992Y-2.7717
X1.4173Y-3.9606
X1.4173Y-4.2677
X13.5827Y-0.9685
X13.5827Y-1.2756
X0.3543Y-0.9882
X0.3543Y-1.2953
X7.0669Y-2.4646
X7.0669Y-2.7717
X2.3622Y-3.9606
X2.3622Y-4.2677
X6.4961Y-0.9685
X6.4961Y-1.2756
X12.8346Y0.1535
X12.8346Y-0.1535
X9.3701Y-2.4646
X9.3701Y-2.7717
X5.9252Y-3.2126
X5.9252Y-3.5197
X0.5512Y-1.7165
X0.5512Y-2.0236
X12.0669Y0.1535
X12.0669Y-0.1535
X0.8268Y-3.2126
X0.8268Y-3.5197
X16.0827Y-3.9606
X16.0827Y-4.2677
X9.0748Y-3.9606
X9.0748Y-4.2677
X7.2638Y-0.9685
X7.2638Y-1.2756
X11.1024Y0.1535
X11.1024Y-0.1535
X3.9961Y-2.4646
X3.9961Y-2.7717
X14.5472Y-3.2126
X14.5472Y-3.5197
X10.0394Y-3.9606
X10.0394Y-4.2677
X6.1024Y-1.7165
X6.1024Y-2.0236
X14.5472Y-2.4646
X14.5472Y-2.7717
X12.0472Y-0.9685
X12.0472Y-1.2756
X4.1929Y0.1535
X4.1929Y-0.1535
X1.4961Y-1.7165
X1.4961Y-2.0236
X12.0472Y-3.9606
X12.0472Y-4.2677
X15.315Y-3.2126
X15.315Y-3.5197
X5.3543Y0.1535
X5.3543Y-0.1535
X3.0315Y-1.7165
X3.0315Y-2.0236
X15.315Y-0.9685
X15.315Y-1.2756
X2.6575Y-0.9685
X2.6575Y-1.2756
X12.815Y-1.7165
X12.815Y-2.0236
X4.9606Y-0.9882
X4.9606Y-1.2953
X7.8346Y-2.4646
X7.8346Y-2.7717
X13.5827Y-3.9606
X13.5827Y-4.2677
X10.3346Y0.1535
X10.3346Y-0.1535
X2.4606Y-2.4646
X2.4606Y-2.7717
X0.3543Y0.1535
X0.3543Y-0.1535
X3.622Y-3.2126
X3.622Y-3.5197
X16.0827Y-1.7165
X16.0827Y-2.0236
X6.122Y0.1535
X6.122Y-0.1535
X2.0866Y-3.2126
X2.0866Y-3.5197
X1.8898Y0.1535
X1.8898Y-0.1535
X5.2362Y-3.9606
X5.2362Y-4.2677
X8.0315Y-0.9685
X8.0315Y-1.2756
X5.7283Y-0.9685
X5.7283Y-1.2756
X1.6929Y-2.4646
X1.6929Y-2.7717
X3.4252Y0.1535
X3.4252Y-0.1535
X6.6929Y-3.2126
X6.6929Y-3.5197
X10.7087Y-0.9685
X10.7087Y-1.2756
X8.7992Y0.1535
X8.7992Y-0.1535
X3.2283Y-2.4646
X3.2283Y-2.7717
X11.0039Y-3.9606
X11.0039Y-4.2677
X9.5669Y-0.9685
X9.5669Y-1.2756
X12.815Y-0.9685
X12.815Y-1.2756
X0.6496Y-2.4646
X0.6496Y-2.7717
X10.4134Y-3.2126
X10.4134Y-3.5197
X3.7992Y-1.7165
X3.7992Y-2.0236
X12.0472Y-1.7165
X12.0472Y-2.0236
X16.0827Y-2.4646
X16.0827Y-2.7717
X4.3898Y-3.2126
X4.3898Y-3.5197
X6.8701Y-1.7165
X6.8701Y-2.0236
X14.5472Y-0.9685
X14.5472Y-1.2756
X14.9213Y-3.9606
X14.9213Y-4.2677
X9.1732Y-1.7165
X9.1732Y-2.0236
X16.0827Y-0.9685
X16.0827Y-1.2756
X3.4252Y-0.9685
X3.4252Y-1.2756
X4.7638Y-2.4646
X4.7638Y-2.7717
X12.815Y-3.9606
X12.815Y-4.2677
X13.6024Y0.1535
X13.6024Y-0.1535
X16.3031Y-4.1142
X16.6102Y-4.1142
X2.8543Y-3.2126
X2.8543Y-3.5197
X5.1575Y-3.2126
X5.1575Y-3.5197
X16.8504Y-0.9685
X16.8504Y-1.2756
X1.122Y-0.9685
X1.122Y-1.2756
X5.5315Y-2.4646
X5.5315Y-2.7717
X8.2087Y-3.2126
X8.2087Y-3.5197
X9.5669Y0.1535
X9.5669Y-0.1535
X10.9055Y-1.7165
X10.9055Y-2.0236
X2.6575Y0.1535
X2.6575Y-0.1535
X8.9764Y-3.2126
X8.9764Y-3.5197
X8.7992Y-0.9685
X8.7992Y-1.2756
X7.6575Y0.1535
X7.6575Y-0.1535
X10.6102Y-2.4646
X10.6102Y-2.7717
X16.0827Y-3.2126
X16.0827Y-3.5197
X8.1299Y-3.9606
X8.1299Y-4.2677
X2.2835Y-1.7165
X2.2835Y-2.0236
X1.8898Y-0.9685
X1.8898Y-1.2756
X9.9409Y-1.7165
X9.9409Y-2.0236
X7.4606Y-3.2126
X7.4606Y-3.5197
X5.3346Y-1.7165
X5.3346Y-2.0236
T4
X13.94Y0.26
X14.0187Y0.26
X14.0975Y0.26
T5
X16.45Y-0.28
X16.45Y-0.4769
X16.6469Y-0.28
X16.6469Y-0.4769
T6
X13.8573Y0.26
X14.1802Y0.26
T2
G00X15.9453Y0.4937
M15
G01X15.9453Y0.5173
M16
G05
G00X15.9594Y0.2594
M15
G01X15.9594Y0.2831
M16
G05
G00X16.2846Y0.2594
M15
G01X16.2846Y0.2831
M16
G05
G00X16.2988Y0.4937
M15
G01X16.2988Y0.5173
M16
G05
T6
G00X9.4528Y-1.7047
M15
G01X9.4208Y-1.7622
M16
G05
G00X9.6709Y-1.6622
M15
G01X9.6693Y-1.685
M16
G05
G00X12.3307Y-3.9528
M15
G01X12.2988Y-4.0102
M16
G05
G00X12.5488Y-3.9103
M15
G01X12.5473Y-3.933
M16
G05
G00X7.5355Y-0.9567
M15
G01X7.5035Y-1.0142
M16
G05
G00X7.7535Y-0.9142
M15
G01X7.752Y-0.937
M16
G05
G00X0.1575Y-2.4528
M15
G01X0.1256Y-2.5102
M16
G05
G00X0.3756Y-2.4103
M15
G01X0.374Y-2.433
M16
G05
G00X6.1969Y-3.2008
M15
G01X6.1649Y-3.2583
M16
G05
G00X6.4149Y-3.1583
M15
G01X6.4134Y-3.1811
M16
G05
G00X7.7284Y-3.2008
M15
G01X7.6964Y-3.2583
M16
G05
G00X7.9464Y-3.1583
M15
G01X7.9449Y-3.1811
M16
G05
G00X2.937Y0.1693
M15
G01X2.9051Y0.1118
M16
G05
G00X3.1551Y0.2118
M15
G01X3.1536Y0.189
M16
G05
G00X2.9331Y-0.9567
M15
G01X2.9012Y-1.0142
M16
G05
G00X3.1512Y-0.9142
M15
G01X3.1496Y-0.937
M16
G05
G00X2.7441Y-2.4528
M15
G01X2.7122Y-2.5102
M16
G05
G00X2.9622Y-2.4103
M15
G01X2.9606Y-2.433
M16
G05
G00X11.563Y-1.7047
M15
G01X11.5311Y-1.7622
M16
G05
G00X11.7811Y-1.6622
M15
G01X11.7795Y-1.685
M16
G05
G00X12.3307Y-1.7047
M15
G01X12.2988Y-1.7622
M16
G05
G00X12.5488Y-1.6622
M15
G01X12.5473Y-1.685
M16
G05
G00X8.3071Y0.1693
M15
G01X8.2752Y0.1118
M16
G05
G00X8.5252Y0.2118
M15
G01X8.5236Y0.189
M16
G05
G00X9.8386Y0.1693
M15
G01X9.8067Y0.1118
M16
G05
G00X10.0567Y0.2118
M15
G01X10.0551Y0.189
M16
G05
G00X8.8819Y-2.4528
M15
G01X8.85Y-2.5102
M16
G05
G00X9.1Y-2.4103
M15
G01X9.0984Y-2.433
M16
G05
G00X16.3583Y-0.9567
M15
G01X16.3264Y-1.0142
M16
G05
G00X16.5764Y-0.9142
M15
G01X16.5748Y-0.937
M16
G05
G00X14.8229Y-1.7047
M15
G01X14.7909Y-1.7622
M16
G05
G00X15.0409Y-1.6622
M15
G01X15.0394Y-1.685
M16
G05
G00X2.1732Y-0.9567
M15
G01X2.1413Y-1.0142
M16
G05
G00X2.3913Y-0.9142
M15
G01X2.3898Y-0.937
M16
G05
G00X4.6614Y-3.2008
M15
G01X4.6295Y-3.2583
M16
G05
G00X4.8795Y-3.1583
M15
G01X4.878Y-3.1811
M16
G05
G00X3.3189Y-1.7047
M15
G01X3.287Y-1.7622
M16
G05
G00X3.537Y-1.6622
M15
G01X3.5354Y-1.685
M16
G05
G00X16.626Y-2.1181
M15
G01X16.5685Y-2.0862
M16
G05
G00X16.6685Y-2.3362
M15
G01X16.6457Y-2.3347
M16
G05
G00X6.004Y-0.9567
M15
G01X5.972Y-1.0142
M16
G05
G00X6.222Y-0.9142
M15
G01X6.2205Y-0.937
M16
G05
G00X9.0709Y-0.9567
M15
G01X9.039Y-1.0142
M16
G05
G00X9.289Y-0.9142
M15
G01X9.2874Y-0.937
M16
G05
G00X5.811Y-2.4528
M15
G01X5.7791Y-2.5102
M16
G05
G00X6.0291Y-2.4103
M15
G01X6.0276Y-2.433
M16
G05
G00X11.563Y-0.9567
M15
G01X11.5311Y-1.0142
M16
G05
G00X11.7811Y-0.9142
M15
G01X11.7795Y-0.937
M16
G05
G00X7.1536Y-1.7047
M15
G01X7.1216Y-1.7622
M16
G05
G00X7.3716Y-1.6622
M15
G01X7.3701Y-1.685
M16
G05
G00X2.5512Y-1.7047
M15
G01X2.5193Y-1.7622
M16
G05
G00X2.7693Y-1.6622
M15
G01X2.7677Y-1.685
M16
G05
G00X11.563Y-3.9528
M15
G01X11.5311Y-4.0102
M16
G05
G00X11.7811Y-3.9103
M15
G01X11.7795Y-3.933
M16
G05
G00X5.6181Y-1.7047
M15
G01X5.5862Y-1.7622
M16
G05
G00X5.8362Y-1.6622
M15
G01X5.8347Y-1.685
M16
G05
G00X1.4016Y0.1693
M15
G01X1.3697Y0.1118
M16
G05
G00X1.6197Y0.2118
M15
G01X1.6181Y0.189
M16
G05
G00X4.2795Y-2.4528
M15
G01X4.2476Y-2.5102
M16
G05
G00X4.4976Y-2.4103
M15
G01X4.4961Y-2.433
M16
G05
G00X14.8229Y-3.2008
M15
G01X14.7909Y-3.2583
M16
G05
G00X15.0409Y-3.1583
M15
G01X15.0394Y-3.1811
M16
G05
G00X2.1693Y0.1693
M15
G01X2.1374Y0.1118
M16
G05
G00X2.3874Y0.2118
M15
G01X2.3858Y0.189
M16
G05
G00X3.8937Y-3.2008
M15
G01X3.8618Y-3.2583
M16
G05
G00X4.1118Y-3.1583
M15
G01X4.1102Y-3.1811
M16
G05
G00X9.9331Y-3.2008
M15
G01X9.9012Y-3.2583
M16
G05
G00X10.1512Y-3.1583
M15
G01X10.1496Y-3.1811
M16
G05
G00X1.4055Y-0.9567
M15
G01X1.3736Y-1.0142
M16
G05
G00X1.6236Y-0.9142
M15
G01X1.6221Y-0.937
M16
G05
G00X10.2205Y-0.9567
M15
G01X10.1886Y-1.0142
M16
G05
G00X10.4386Y-0.9142
M15
G01X10.437Y-0.937
M16
G05
G00X1.878Y-3.9488
M15
G01X1.846Y-4.0063
M16
G05
G00X2.0961Y-3.9063
M15
G01X2.0945Y-3.9291
M16
G05
G00X8.3032Y-0.9567
M15
G01X8.2712Y-1.0142
M16
G05
G00X8.5212Y-0.9142
M15
G01X8.5197Y-0.937
M16
G05
G00X15.5906Y-3.9488
M15
G01X15.5586Y-4.0063
M16
G05
G00X15.8087Y-3.9063
M15
G01X15.8071Y-3.9291
M16
G05
G00X1.2087Y-2.4528
M15
G01X1.1768Y-2.5102
M16
G05
G00X1.4268Y-2.4103
M15
G01X1.4252Y-2.433
M16
G05
G00X8.5906Y-3.9488
M15
G01X8.5586Y-4.0063
M16
G05
G00X8.8087Y-3.9063
M15
G01X8.8071Y-3.9291
M16
G05
G00X7.6339Y-3.9488
M15
G01X7.602Y-4.0063
M16
G05
G00X7.852Y-3.9063
M15
G01X7.8504Y-3.9291
M16
G05
G00X4.8543Y0.1693
M15
G01X4.8224Y0.1118
M16
G05
G00X5.0724Y0.2118
M15
G01X5.0709Y0.189
M16
G05
G00X12.3347Y0.1693
M15
G01X12.3027Y0.1118
M16
G05
G00X12.5527Y0.2118
M15
G01X12.5512Y0.189
M16
G05
G00X6.5788Y-2.4528
M15
G01X6.5468Y-2.5102
M16
G05
G00X6.7968Y-2.4103
M15
G01X6.7953Y-2.433
M16
G05
G00X12.3307Y-3.2047
M15
G01X12.2988Y-3.2622
M16
G05
G00X12.5488Y-3.1622
M15
G01X12.5473Y-3.185
M16
G05
G00X14.0551Y-0.9567
M15
G01X14.0232Y-1.0142
M16
G05
G00X14.2732Y-0.9142
M15
G01X14.2717Y-0.937
M16
G05
G00X10.6063Y0.1693
M15
G01X10.5744Y0.1118
M16
G05
G00X10.8244Y0.2118
M15
G01X10.8228Y0.189
M16
G05
G00X2.3583Y-3.2008
M15
G01X2.3264Y-3.2583
M16
G05
G00X2.5764Y-3.1583
M15
G01X2.5748Y-3.1811
M16
G05
G00X10.5079Y-3.9488
M15
G01X10.476Y-4.0063
M16
G05
G00X10.726Y-3.9063
M15
G01X10.7244Y-3.9291
M16
G05
G00X14.0551Y-1.7047
M15
G01X14.0232Y-1.7622
M16
G05
G00X14.2732Y-1.6622
M15
G01X14.2717Y-1.685
M16
G05
G00X3.7008Y-0.9567
M15
G01X3.6689Y-1.0142
M16
G05
G00X3.9189Y-0.9142
M15
G01X3.9173Y-0.937
M16
G05
G00X5.4292Y-3.2008
M15
G01X5.3972Y-3.2583
M16
G05
G00X5.6472Y-3.1583
M15
G01X5.6457Y-3.1811
M16
G05
G00X3.5118Y-2.4528
M15
G01X3.4799Y-2.5102
M16
G05
G00X3.7299Y-2.4103
M15
G01X3.7284Y-2.433
M16
G05
G00X14.0551Y-2.4528
M15
G01X14.0232Y-2.5102
M16
G05
G00X14.2732Y-2.4103
M15
G01X14.2717Y-2.433
M16
G05
G00X6.7677Y-0.9567
M15
G01X6.7358Y-1.0142
M16
G05
G00X6.9858Y-0.9142
M15
G01X6.9843Y-0.937
M16
G05
G00X1.0158Y-1.7047
M15
G01X0.9838Y-1.7622
M16
G05
G00X1.2338Y-1.6622
M15
G01X1.2323Y-1.685
M16
G05
G00X6.3858Y-1.7047
M15
G01X6.3539Y-1.7622
M16
G05
G00X6.6039Y-1.6622
M15
G01X6.6024Y-1.685
M16
G05
G00X14.8229Y-2.4528
M15
G01X14.7909Y-2.5102
M16
G05
G00X15.0409Y-2.4103
M15
G01X15.0394Y-2.433
M16
G05
G00X7.3465Y-2.4528
M15
G01X7.3145Y-2.5102
M16
G05
G00X7.5646Y-2.4103
M15
G01X7.563Y-2.433
M16
G05
G00X10.4134Y-1.7047
M15
G01X10.3815Y-1.7622
M16
G05
G00X10.6315Y-1.6622
M15
G01X10.6299Y-1.685
M16
G05
G00X15.5906Y-2.4528
M15
G01X15.5586Y-2.5102
M16
G05
G00X15.8087Y-2.4103
M15
G01X15.8071Y-2.433
M16
G05
G00X5.6221Y0.1693
M15
G01X5.5901Y0.1118
M16
G05
G00X5.8401Y0.2118
M15
G01X5.8386Y0.189
M16
G05
G00X1.5906Y-3.2008
M15
G01X1.5586Y-3.2583
M16
G05
G00X1.8087Y-3.1583
M15
G01X1.8071Y-3.1811
M16
G05
G00X14.0551Y-3.2008
M15
G01X14.0232Y-3.2583
M16
G05
G00X14.2732Y-3.1583
M15
G01X14.2717Y-3.1811
M16
G05
G00X6.3898Y0.1693
M15
G01X6.3579Y0.1118
M16
G05
G00X6.6079Y0.2118
M15
G01X6.6063Y0.189
M16
G05
G00X11.5669Y0.1693
M15
G01X11.535Y0.1118
M16
G05
G00X11.785Y0.2118
M15
G01X11.7835Y0.189
M16
G05
G00X16.626Y-3.6142
M15
G01X16.5685Y-3.5823
M16
G05
G00X16.6685Y-3.8323
M15
G01X16.6457Y-3.8307
M16
G05
G00X7.9213Y-1.7047
M15
G01X7.8894Y-1.7622
M16
G05
G00X8.1394Y-1.6622
M15
G01X8.1378Y-1.685
M16
G05
G00X15.5906Y-1.7047
M15
G01X15.5586Y-1.7622
M16
G05
G00X15.8087Y-1.6622
M15
G01X15.8071Y-1.685
M16
G05
G00X3.7047Y0.1693
M15
G01X3.6728Y0.1118
M16
G05
G00X3.9228Y0.2118
M15
G01X3.9213Y0.189
M16
G05
G00X4.4685Y-0.9567
M15
G01X4.4366Y-1.0142
M16
G05
G00X4.6866Y-0.9142
M15
G01X4.6851Y-0.937
M16
G05
G00X15.5906Y-3.2008
M15
G01X15.5586Y-3.2583
M16
G05
G00X15.8087Y-3.1583
M15
G01X15.8071Y-3.1811
M16
G05
G00X8.689Y-1.7047
M15
G01X8.6571Y-1.7622
M16
G05
G00X8.9071Y-1.6622
M15
G01X8.9055Y-1.685
M16
G05
G00X4.7559Y-3.9488
M15
G01X4.724Y-4.0063
M16
G05
G00X4.974Y-3.9063
M15
G01X4.9725Y-3.9291
M16
G05
G00X-0.0354Y-3.9488
M15
G01X-0.0673Y-4.0063
M16
G05
G00X0.1827Y-3.9063
M15
G01X0.1811Y-3.9291
M16
G05
G00X13.1006Y0.1693
M15
G01X13.0687Y0.1118
M16
G05
G00X13.3187Y0.2118
M15
G01X13.3172Y0.189
M16
G05
G00X1.9764Y-2.4528
M15
G01X1.9445Y-2.5102
M16
G05
G00X2.1945Y-2.4103
M15
G01X2.1929Y-2.433
M16
G05
G00X13.0984Y-0.9567
M15
G01X13.0665Y-1.0142
M16
G05
G00X13.3165Y-0.9142
M15
G01X13.315Y-0.937
M16
G05
G00X12.3307Y-0.9567
M15
G01X12.2988Y-1.0142
M16
G05
G00X12.5488Y-0.9142
M15
G01X12.5473Y-0.937
M16
G05
G00X7.1575Y0.1693
M15
G01X7.1256Y0.1118
M16
G05
G00X7.3756Y0.2118
M15
G01X7.374Y0.189
M16
G05
G00X9.0748Y0.1693
M15
G01X9.0429Y0.1118
M16
G05
G00X9.2929Y0.2118
M15
G01X9.2913Y0.189
M16
G05
G00X8.1103Y-2.4528
M15
G01X8.0783Y-2.5102
M16
G05
G00X8.3283Y-2.4103
M15
G01X8.3268Y-2.433
M16
G05
G00X9.5473Y-3.9488
M15
G01X9.5153Y-4.0063
M16
G05
G00X9.7653Y-3.9063
M15
G01X9.7638Y-3.9291
M16
G05
G00X13.0945Y-3.9528
M15
G01X13.0626Y-4.0102
M16
G05
G00X13.3126Y-3.9103
M15
G01X13.311Y-3.933
M16
G05
G00X-0.1299Y-0.9567
M15
G01X-0.1618Y-1.0142
M16
G05
G00X0.0882Y-0.9142
M15
G01X0.0866Y-0.937
M16
G05
G00X0.3465Y-3.2008
M15
G01X0.3145Y-3.2583
M16
G05
G00X0.5646Y-3.1583
M15
G01X0.563Y-3.1811
M16
G05
G00X13.0984Y-1.7047
M15
G01X13.0665Y-1.7622
M16
G05
G00X13.3165Y-1.6622
M15
G01X13.315Y-1.685
M16
G05
G00X15.5906Y-0.9567
M15
G01X15.5586Y-1.0142
M16
G05
G00X15.8087Y-0.9142
M15
G01X15.8071Y-0.937
M16
G05
G00X5.2362Y-0.9567
M15
G01X5.2043Y-1.0142
M16
G05
G00X5.4543Y-0.9142
M15
G01X5.4528Y-0.937
M16
G05
G00X4.8543Y-1.7047
M15
G01X4.8224Y-1.7622
M16
G05
G00X5.0724Y-1.6622
M15
G01X5.0709Y-1.685
M16
G05
G00X5.0433Y-2.4528
M15
G01X5.0114Y-2.5102
M16
G05
G00X5.2614Y-2.4103
M15
G01X5.2599Y-2.433
M16
G05
G00X0.9213Y-3.9488
M15
G01X0.8894Y-4.0063
M16
G05
G00X1.1394Y-3.9063
M15
G01X1.1378Y-3.9291
M16
G05
G00X14.437Y-3.9488
M15
G01X14.4051Y-4.0063
M16
G05
G00X14.6551Y-3.9063
M15
G01X14.6536Y-3.9291
M16
G05
G00X4.0866Y-1.7047
M15
G01X4.0547Y-1.7622
M16
G05
G00X4.3047Y-1.6622
M15
G01X4.3032Y-1.685
M16
G05
G00X1.7835Y-1.7047
M15
G01X1.7516Y-1.7622
M16
G05
G00X2.0016Y-1.6622
M15
G01X2.0Y-1.685
M16
G05
G00X6.9606Y-3.2008
M15
G01X6.9287Y-3.2583
M16
G05
G00X7.1787Y-3.1583
M15
G01X7.1772Y-3.1811
M16
G05
G00X0.0591Y-1.7047
M15
G01X0.0271Y-1.7622
M16
G05
G00X0.2772Y-1.6622
M15
G01X0.2756Y-1.685
M16
G05
G00X10.126Y-2.4528
M15
G01X10.0941Y-2.5102
M16
G05
G00X10.3441Y-2.4103
M15
G01X10.3425Y-2.433
M16
G05
G00X14.8229Y-0.9567
M15
G01X14.7909Y-1.0142
M16
G05
G00X15.0409Y-0.9142
M15
G01X15.0394Y-0.937
M16
G05
G00X3.126Y-3.2008
M15
G01X3.0941Y-3.2583
M16
G05
G00X3.3441Y-3.1583
M15
G01X3.3425Y-3.1811
M16
G05
G00X8.4961Y-3.2008
M15
G01X8.4642Y-3.2583
M16
G05
G00X8.7142Y-3.1583
M15
G01X8.7126Y-3.1811
M16
G05
G00X-0.1338Y0.1693
M15
G01X-0.1658Y0.1118
M16
G05
G00X0.0842Y0.2118
M15
G01X0.0827Y0.189
M16
G05
G00X0.6378Y-0.9567
M15
G01X0.6059Y-1.0142
M16
G05
G00X0.8559Y-0.9142
M15
G01X0.8543Y-0.937
M16
G05
T0
M30
