M48
; DRILL file {KiCad (5.1.4)-1} date 11/5/2019 1:24:33 AM
; FORMAT={-:-/ absolute / inch / decimal}
; #@! TF.CreationDate,2019-11-05T01:24:33-05:00
; #@! TF.GenerationSoftware,Kicad,Pcbnew,(5.1.4)-1
; #@! TF.FileFunction,NonPlated,1,2,NPTH
FMAT,2
INCH
T1C0.0256
T2C0.0670
T3C0.1570
%
G90
G05
T1
X16.2638Y0.222
T2
X5.3472Y-3.3583
X5.7472Y-3.3583
X3.4299Y-2.6102
X3.8299Y-2.6102
X13.9732Y-2.6102
X14.3732Y-2.6102
X6.6858Y-1.1142
X7.0858Y-1.1142
X0.9339Y-1.8622
X1.3339Y-1.8622
X6.3039Y-1.8622
X6.7039Y-1.8622
X14.7409Y-2.6102
X15.1409Y-2.6102
X7.2646Y-2.6102
X7.6646Y-2.6102
X10.3315Y-1.8622
X10.7315Y-1.8622
X15.5087Y-2.6102
X15.9087Y-2.6102
X5.5402Y0.0118
X5.9402Y0.0118
X1.5087Y-3.3583
X1.9087Y-3.3583
X13.9732Y-3.3583
X14.3732Y-3.3583
X6.3079Y0.0118
X6.7079Y0.0118
X11.485Y0.0118
X11.885Y0.0118
X16.4685Y-3.5323
X16.4685Y-3.9323
X7.8394Y-1.8622
X8.2394Y-1.8622
X15.5087Y-1.8622
X15.9087Y-1.8622
X3.6228Y0.0118
X4.0228Y0.0118
X4.3866Y-1.1142
X4.7866Y-1.1142
X15.5087Y-3.3583
X15.9087Y-3.3583
X8.6071Y-1.8622
X9.0071Y-1.8622
X4.674Y-4.1063
X5.074Y-4.1063
X-0.1173Y-4.1063
X0.2827Y-4.1063
X13.0187Y0.0118
X13.4187Y0.0118
X1.8945Y-2.6102
X2.2945Y-2.6102
X13.0165Y-1.1142
X13.4165Y-1.1142
X12.2488Y-1.1142
X12.6488Y-1.1142
X7.0756Y0.0118
X7.4756Y0.0118
X8.9929Y0.0118
X9.3929Y0.0118
X8.0283Y-2.6102
X8.4283Y-2.6102
X9.4654Y-4.1063
X9.8654Y-4.1063
X13.0126Y-4.1102
X13.4126Y-4.1102
X-0.2118Y-1.1142
X0.1882Y-1.1142
X0.2646Y-3.3583
X0.6646Y-3.3583
X13.0165Y-1.8622
X13.4165Y-1.8622
X15.5087Y-1.1142
X15.9087Y-1.1142
X5.1543Y-1.1142
X5.5543Y-1.1142
X4.7724Y-1.8622
X5.1724Y-1.8622
X4.9614Y-2.6102
X5.3614Y-2.6102
X0.8394Y-4.1063
X1.2394Y-4.1063
X14.3551Y-4.1063
X14.7551Y-4.1063
X4.0047Y-1.8622
X4.4047Y-1.8622
X1.7016Y-1.8622
X2.1016Y-1.8622
X6.8787Y-3.3583
X7.2787Y-3.3583
X-0.0228Y-1.8622
X0.3772Y-1.8622
X10.0441Y-2.6102
X10.4441Y-2.6102
X14.7409Y-1.1142
X15.1409Y-1.1142
X3.0441Y-3.3583
X3.4441Y-3.3583
X8.4142Y-3.3583
X8.8142Y-3.3583
X-0.2157Y0.0118
X0.1843Y0.0118
X0.5559Y-1.1142
X0.9559Y-1.1142
X9.3709Y-1.8622
X9.7709Y-1.8622
X12.2488Y-4.1102
X12.6488Y-4.1102
X7.4535Y-1.1142
X7.8535Y-1.1142
X0.0756Y-2.6102
X0.4756Y-2.6102
X6.115Y-3.3583
X6.515Y-3.3583
X7.6465Y-3.3583
X8.0465Y-3.3583
X2.8551Y0.0118
X3.2551Y0.0118
X2.8512Y-1.1142
X3.2512Y-1.1142
X2.6622Y-2.6102
X3.0622Y-2.6102
X11.4811Y-1.8622
X11.8811Y-1.8622
X12.2488Y-1.8622
X12.6488Y-1.8622
X8.2252Y0.0118
X8.6252Y0.0118
X9.7567Y0.0118
X10.1567Y0.0118
X8.8Y-2.6102
X9.2Y-2.6102
X16.2764Y-1.1142
X16.6764Y-1.1142
X14.7409Y-1.8622
X15.1409Y-1.8622
X2.0913Y-1.1142
X2.4913Y-1.1142
X4.5795Y-3.3583
X4.9795Y-3.3583
X3.237Y-1.8622
X3.637Y-1.8622
X16.4685Y-2.0362
X16.4685Y-2.4362
X5.922Y-1.1142
X6.322Y-1.1142
X8.989Y-1.1142
X9.389Y-1.1142
X5.7291Y-2.6102
X6.1291Y-2.6102
X11.4811Y-1.1142
X11.8811Y-1.1142
X7.0717Y-1.8622
X7.4717Y-1.8622
X2.4693Y-1.8622
X2.8693Y-1.8622
X11.4811Y-4.1102
X11.8811Y-4.1102
X5.5362Y-1.8622
X5.9362Y-1.8622
X1.3197Y0.0118
X1.7197Y0.0118
X4.1976Y-2.6102
X4.5976Y-2.6102
X14.7409Y-3.3583
X15.1409Y-3.3583
X2.0874Y0.0118
X2.4874Y0.0118
X3.8118Y-3.3583
X4.2118Y-3.3583
X9.8512Y-3.3583
X10.2512Y-3.3583
X1.3236Y-1.1142
X1.7236Y-1.1142
X10.1386Y-1.1142
X10.5386Y-1.1142
X1.7961Y-4.1063
X2.1961Y-4.1063
X8.2213Y-1.1142
X8.6213Y-1.1142
X15.5087Y-4.1063
X15.9087Y-4.1063
X1.1268Y-2.6102
X1.5268Y-2.6102
X8.5087Y-4.1063
X8.9087Y-4.1063
X7.552Y-4.1063
X7.952Y-4.1063
X4.7724Y0.0118
X5.1724Y0.0118
X12.2528Y0.0118
X12.6528Y0.0118
X6.4969Y-2.6102
X6.8969Y-2.6102
X12.2488Y-3.3622
X12.6488Y-3.3622
X13.9732Y-1.1142
X14.3732Y-1.1142
X10.5244Y0.0118
X10.9244Y0.0118
X2.2764Y-3.3583
X2.6764Y-3.3583
X10.426Y-4.1063
X10.826Y-4.1063
X13.9732Y-1.8622
X14.3732Y-1.8622
X3.6189Y-1.1142
X4.0189Y-1.1142
T3
X5.7402Y0.0118
X1.7087Y-3.3583
X14.1732Y-3.3583
X6.5079Y0.0118
X11.685Y0.0118
X16.4685Y-3.7323
X8.0394Y-1.8622
X15.7087Y-1.8622
X3.8228Y0.0118
X4.5866Y-1.1142
X15.7087Y-3.3583
X8.8071Y-1.8622
X4.874Y-4.1063
X0.0827Y-4.1063
X13.2187Y0.0118
X2.0945Y-2.6102
X13.2165Y-1.1142
X12.4488Y-1.1142
X7.2756Y0.0118
X9.1929Y0.0118
X8.2283Y-2.6102
X9.6654Y-4.1063
X13.2126Y-4.1102
X-0.0118Y-1.1142
X0.4646Y-3.3583
X13.2165Y-1.8622
X15.7087Y-1.1142
X5.3543Y-1.1142
X4.9724Y-1.8622
X5.1614Y-2.6102
X1.0394Y-4.1063
X14.5551Y-4.1063
X4.2047Y-1.8622
X1.9016Y-1.8622
X7.0787Y-3.3583
X0.1772Y-1.8622
X10.2441Y-2.6102
X14.9409Y-1.1142
X3.2441Y-3.3583
X8.6142Y-3.3583
X-0.0157Y0.0118
X0.7559Y-1.1142
X9.5709Y-1.8622
X12.4488Y-4.1102
X7.6535Y-1.1142
X0.2756Y-2.6102
X6.315Y-3.3583
X7.8465Y-3.3583
X3.0551Y0.0118
X3.0512Y-1.1142
X2.8622Y-2.6102
X11.6811Y-1.8622
X12.4488Y-1.8622
X8.4252Y0.0118
X9.9567Y0.0118
X9.0Y-2.6102
X16.4764Y-1.1142
X14.9409Y-1.8622
X2.2913Y-1.1142
X4.7795Y-3.3583
X3.437Y-1.8622
X16.4685Y-2.2362
X6.122Y-1.1142
X9.189Y-1.1142
X5.9291Y-2.6102
X11.6811Y-1.1142
X7.2717Y-1.8622
X2.6693Y-1.8622
X11.6811Y-4.1102
X5.7362Y-1.8622
X1.5197Y0.0118
X4.3976Y-2.6102
X14.9409Y-3.3583
X2.2874Y0.0118
X4.0118Y-3.3583
X10.0512Y-3.3583
X1.5236Y-1.1142
X10.3386Y-1.1142
X1.9961Y-4.1063
X8.4213Y-1.1142
X15.7087Y-4.1063
X1.3268Y-2.6102
X8.7087Y-4.1063
X7.752Y-4.1063
X4.9724Y0.0118
X12.4528Y0.0118
X6.6969Y-2.6102
X12.4488Y-3.3622
X14.1732Y-1.1142
X10.7244Y0.0118
X2.4764Y-3.3583
X10.626Y-4.1063
X14.1732Y-1.8622
X3.8189Y-1.1142
X5.5472Y-3.3583
X3.6299Y-2.6102
X14.1732Y-2.6102
X6.8858Y-1.1142
X1.1339Y-1.8622
X6.5039Y-1.8622
X14.9409Y-2.6102
X7.4646Y-2.6102
X10.5315Y-1.8622
X15.7087Y-2.6102
T1
G00X15.9862Y0.222
M15
G01X15.9744Y0.222
M16
G05
T0
M30
